HIERARCHY
ROOT Hips
{
  OFFSET -6.10715 92.9495 -38.6846
  CHANNELS 6 Xposition Yposition Zposition Zrotation Xrotation Yrotation
  JOINT Spine
  {
    OFFSET 0 8 0
    CHANNELS 6 Xposition Yposition Zposition Zrotation Xrotation Yrotation
    JOINT Spine1
    {
      OFFSET 0 8 0
      CHANNELS 6 Xposition Yposition Zposition Zrotation Xrotation Yrotation
      JOINT Spine2
      {
        OFFSET 0 8 0
        CHANNELS 6 Xposition Yposition Zposition Zrotation Xrotation Yrotation
        JOINT Spine3
        {
          OFFSET 0 8 0
          CHANNELS 6 Xposition Yposition Zposition Zrotation Xrotation Yrotation
          JOINT Neck
          {
            OFFSET 0 17 0
            CHANNELS 6 Xposition Yposition Zposition Zrotation Xrotation Yrotation
            JOINT Head
            {
              OFFSET 0 10.8 0
              CHANNELS 6 Xposition Yposition Zposition Zrotation Xrotation Yrotation
              End Site
              {
                OFFSET 0 20.25 0
              }
            }
          }
          JOINT LeftShoulder
          {
            OFFSET 5 17 0
            CHANNELS 6 Xposition Yposition Zposition Zrotation Xrotation Yrotation
            JOINT LeftShoulder2
            {
              OFFSET 6.45 0 0
              CHANNELS 6 Xposition Yposition Zposition Zrotation Xrotation Yrotation
              JOINT LeftArm
              {
                OFFSET 6.45 0 0
                CHANNELS 6 Xposition Yposition Zposition Zrotation Xrotation Yrotation
                JOINT LeftForeArm
                {
                  OFFSET 0 -32.4 -2
                  CHANNELS 6 Xposition Yposition Zposition Zrotation Xrotation Yrotation
                  JOINT LeftHand
                  {
                    OFFSET 0 -25.65 2
                    CHANNELS 6 Xposition Yposition Zposition Zrotation Xrotation Yrotation
                    JOINT LeftHandThumb1
                    {
                      OFFSET -0.5 -1.5 2.65
                      CHANNELS 6 Xposition Yposition Zposition Zrotation Xrotation Yrotation
                      JOINT LeftHandThumb2
                      {
                        OFFSET 0 -3.8 3.7
                        CHANNELS 6 Xposition Yposition Zposition Zrotation Xrotation Yrotation
                        JOINT LeftHandThumb3
                        {
                          OFFSET 0 -3 2.7
                          CHANNELS 6 Xposition Yposition Zposition Zrotation Xrotation Yrotation
                          End Site
                          {
                            OFFSET 0 -2.3 1.8
                          }
                        }
                      }
                    }
                    JOINT LeftHandIndex
                    {
                      OFFSET 0 -1.9 1.6
                      CHANNELS 6 Xposition Yposition Zposition Zrotation Xrotation Yrotation
                      JOINT LeftHandIndex1
                      {
                        OFFSET 0 -8.3 1.9
                        CHANNELS 6 Xposition Yposition Zposition Zrotation Xrotation Yrotation
                        JOINT LeftHandIndex2
                        {
                          OFFSET 0 -4.5 0
                          CHANNELS 6 Xposition Yposition Zposition Zrotation Xrotation Yrotation
                          JOINT LeftHandIndex3
                          {
                            OFFSET 0 -3.4 0
                            CHANNELS 6 Xposition Yposition Zposition Zrotation Xrotation Yrotation
                            End Site
                            {
                              OFFSET 0 -2.6 0
                            }
                          }
                        }
                      }
                    }
                    JOINT LeftHandMiddle
                    {
                      OFFSET -0.25 -2.2 0.4
                      CHANNELS 6 Xposition Yposition Zposition Zrotation Xrotation Yrotation
                      JOINT LeftHandMiddle1
                      {
                        OFFSET 0 -8.3 1
                        CHANNELS 6 Xposition Yposition Zposition Zrotation Xrotation Yrotation
                        JOINT LeftHandMiddle2
                        {
                          OFFSET 0 -4.65 0
                          CHANNELS 6 Xposition Yposition Zposition Zrotation Xrotation Yrotation
                          JOINT LeftHandMiddle3
                          {
                            OFFSET 0 -3.3 0
                            CHANNELS 6 Xposition Yposition Zposition Zrotation Xrotation Yrotation
                            End Site
                            {
                              OFFSET 0 -2.7 0
                            }
                          }
                        }
                      }
                    }
                    JOINT LeftHandRing
                    {
                      OFFSET -0.5 -2.15 -0.8
                      CHANNELS 6 Xposition Yposition Zposition Zrotation Xrotation Yrotation
                      JOINT LeftHandRing1
                      {
                        OFFSET 0 -7.75 -0.2
                        CHANNELS 6 Xposition Yposition Zposition Zrotation Xrotation Yrotation
                        JOINT LeftHandRing2
                        {
                          OFFSET 0 -3.8 0
                          CHANNELS 6 Xposition Yposition Zposition Zrotation Xrotation Yrotation
                          JOINT LeftHandRing3
                          {
                            OFFSET 0 -3.4 0
                            CHANNELS 6 Xposition Yposition Zposition Zrotation Xrotation Yrotation
                            End Site
                            {
                              OFFSET 0 -2.6 0
                            }
                          }
                        }
                      }
                    }
                    JOINT LeftHandPinky
                    {
                      OFFSET -0.75 -1.75 -1.85
                      CHANNELS 6 Xposition Yposition Zposition Zrotation Xrotation Yrotation
                      JOINT LeftHandPinky1
                      {
                        OFFSET 0 -7.15 -1
                        CHANNELS 6 Xposition Yposition Zposition Zrotation Xrotation Yrotation
                        JOINT LeftHandPinky2
                        {
                          OFFSET 0 -3 0
                          CHANNELS 6 Xposition Yposition Zposition Zrotation Xrotation Yrotation
                          JOINT LeftHandPinky3
                          {
                            OFFSET 0 -2.35 0
                            CHANNELS 6 Xposition Yposition Zposition Zrotation Xrotation Yrotation
                            End Site
                            {
                              OFFSET 0 -2.1 0
                            }
                          }
                        }
                      }
                    }
                  }
                }
              }
            }
          }
          JOINT RightShoulder
          {
            OFFSET -5 17 0
            CHANNELS 6 Xposition Yposition Zposition Zrotation Xrotation Yrotation
            JOINT RightShoulder2
            {
              OFFSET -6.45 0 0
              CHANNELS 6 Xposition Yposition Zposition Zrotation Xrotation Yrotation
              JOINT RightArm
              {
                OFFSET -6.45 0 0
                CHANNELS 6 Xposition Yposition Zposition Zrotation Xrotation Yrotation
                JOINT RightForeArm
                {
                  OFFSET 0 -32.4 -2
                  CHANNELS 6 Xposition Yposition Zposition Zrotation Xrotation Yrotation
                  JOINT RightHand
                  {
                    OFFSET 0 -25.65 2
                    CHANNELS 6 Xposition Yposition Zposition Zrotation Xrotation Yrotation
                    JOINT RightHandThumb1
                    {
                      OFFSET 0.5 -1.5 2.65
                      CHANNELS 6 Xposition Yposition Zposition Zrotation Xrotation Yrotation
                      JOINT RightHandThumb2
                      {
                        OFFSET 0 -3.8 3.7
                        CHANNELS 6 Xposition Yposition Zposition Zrotation Xrotation Yrotation
                        JOINT RightHandThumb3
                        {
                          OFFSET 0 -3 2.7
                          CHANNELS 6 Xposition Yposition Zposition Zrotation Xrotation Yrotation
                          End Site
                          {
                            OFFSET 0 -2.3 1.8
                          }
                        }
                      }
                    }
                    JOINT RightHandIndex
                    {
                      OFFSET 0 -1.9 1.6
                      CHANNELS 6 Xposition Yposition Zposition Zrotation Xrotation Yrotation
                      JOINT RightHandIndex1
                      {
                        OFFSET 0 -8.3 1.9
                        CHANNELS 6 Xposition Yposition Zposition Zrotation Xrotation Yrotation
                        JOINT RightHandIndex2
                        {
                          OFFSET 0 -4.5 0
                          CHANNELS 6 Xposition Yposition Zposition Zrotation Xrotation Yrotation
                          JOINT RightHandIndex3
                          {
                            OFFSET 0 -3.4 0
                            CHANNELS 6 Xposition Yposition Zposition Zrotation Xrotation Yrotation
                            End Site
                            {
                              OFFSET 0 -2.6 0
                            }
                          }
                        }
                      }
                    }
                    JOINT RightHandMiddle
                    {
                      OFFSET 0.25 -2.2 0.4
                      CHANNELS 6 Xposition Yposition Zposition Zrotation Xrotation Yrotation
                      JOINT RightHandMiddle1
                      {
                        OFFSET 0 -8.3 1
                        CHANNELS 6 Xposition Yposition Zposition Zrotation Xrotation Yrotation
                        JOINT RightHandMiddle2
                        {
                          OFFSET 0 -4.65 0
                          CHANNELS 6 Xposition Yposition Zposition Zrotation Xrotation Yrotation
                          JOINT RightHandMiddle3
                          {
                            OFFSET 0 -3.3 0
                            CHANNELS 6 Xposition Yposition Zposition Zrotation Xrotation Yrotation
                            End Site
                            {
                              OFFSET 0 -2.7 0
                            }
                          }
                        }
                      }
                    }
                    JOINT RightHandRing
                    {
                      OFFSET 0.5 -2.15 -0.8
                      CHANNELS 6 Xposition Yposition Zposition Zrotation Xrotation Yrotation
                      JOINT RightHandRing1
                      {
                        OFFSET 0 -7.75 -0.2
                        CHANNELS 6 Xposition Yposition Zposition Zrotation Xrotation Yrotation
                        JOINT RightHandRing2
                        {
                          OFFSET 0 -3.8 0
                          CHANNELS 6 Xposition Yposition Zposition Zrotation Xrotation Yrotation
                          JOINT RightHandRing3
                          {
                            OFFSET 0 -3.4 0
                            CHANNELS 6 Xposition Yposition Zposition Zrotation Xrotation Yrotation
                            End Site
                            {
                              OFFSET 0 -2.6 0
                            }
                          }
                        }
                      }
                    }
                    JOINT RightHandPinky
                    {
                      OFFSET 0.75 -1.75 -1.85
                      CHANNELS 6 Xposition Yposition Zposition Zrotation Xrotation Yrotation
                      JOINT RightHandPinky1
                      {
                        OFFSET 0 -7.15 -1
                        CHANNELS 6 Xposition Yposition Zposition Zrotation Xrotation Yrotation
                        JOINT RightHandPinky2
                        {
                          OFFSET 0 -3 0
                          CHANNELS 6 Xposition Yposition Zposition Zrotation Xrotation Yrotation
                          JOINT RightHandPinky3
                          {
                            OFFSET 0 -2.35 0
                            CHANNELS 6 Xposition Yposition Zposition Zrotation Xrotation Yrotation
                            End Site
                            {
                              OFFSET 0 -2.1 0
                            }
                          }
                        }
                      }
                    }
                  }
                }
              }
            }
          }
        }
      }
    }
  }
  JOINT LeftUpLeg
  {
    OFFSET 8 0 0
    CHANNELS 6 Xposition Yposition Zposition Zrotation Xrotation Yrotation
    JOINT LeftLeg
    {
      OFFSET 0 -45 -1
      CHANNELS 6 Xposition Yposition Zposition Zrotation Xrotation Yrotation
      JOINT LeftFoot
      {
        OFFSET 0 -41 -2
        CHANNELS 6 Xposition Yposition Zposition Zrotation Xrotation Yrotation
        JOINT LeftToeBase
        {
          OFFSET 0 -7.5 12.5
          CHANNELS 6 Xposition Yposition Zposition Zrotation Xrotation Yrotation
          JOINT LeftFootToe
          {
            OFFSET 0 0 4
            CHANNELS 6 Xposition Yposition Zposition Zrotation Xrotation Yrotation
            End Site
            {
              OFFSET 0 0 0
            }
          }
        }
      }
    }
  }
  JOINT RightUpLeg
  {
    OFFSET -8 0 0
    CHANNELS 6 Xposition Yposition Zposition Zrotation Xrotation Yrotation
    JOINT RightLeg
    {
      OFFSET 0 -45 -1
      CHANNELS 6 Xposition Yposition Zposition Zrotation Xrotation Yrotation
      JOINT RightFoot
      {
        OFFSET 0 -41 -2
        CHANNELS 6 Xposition Yposition Zposition Zrotation Xrotation Yrotation
        JOINT RightToeBase
        {
          OFFSET 0 -7.5 12.5
          CHANNELS 6 Xposition Yposition Zposition Zrotation Xrotation Yrotation
          JOINT RightFootToe
          {
            OFFSET 0 0 4
            CHANNELS 6 Xposition Yposition Zposition Zrotation Xrotation Yrotation
            End Site
            {
              OFFSET 0 0 0
            }
          }
        }
      }
    }
  }
}
MOTION
Frames:	4
Frame Time:	0.0111111
0 93.5 0 0 0 -0 0 8 0 0 0 -0 0 8 0 0 0 -0 0 8 0 0 0 -0 0 8 0 0 0 -0 0 17 0 0 0 -0 0 10.8 0 0 0 -0 5 17 0 0 0 -0 6.45 0 0 0 0 -0 6.45 0 0 90.0002 0 -0 0 -32.4 -2 0 0 -0 0 -25.65 2 0 0 -0 -0.5 -1.5 2.65 0 0 -0 0 -3.8 3.7 0 0 -0 0 -3 2.7 0 0 -0 -2.84217e-14 -1.9 1.6 0 0 -0 2.84217e-14 -8.3 1.9 0 0 -0 0 -4.5 0 0 0 -0 0 -3.4 0 0 0 -0 -0.25 -2.2 0.4 0 0 -0 2.84217e-14 -8.3 1 0 0 -0 0 -4.65 0 0 0 -0 0 -3.3 0 0 0 -0 -0.5 -2.15 -0.8 0 0 -0 0 -7.75 -0.2 0 0 -0.00634283 0 -3.8 0 -4.85314e-20 0 -0 0 -3.4 0 -4.85314e-20 0 -0 -0.75 -1.75 -1.85 0 0 -0 0 -7.15 -1 0 0 -0 0 -3 0 0 0 -0 0 -2.35 0 0 0 -0 -5 17 0 0 0 -0 -6.45 0 0 0 0 -0 -6.45 0 0 -90.0002 0 -0 0 -32.4 -2 0 0 -0 0 -25.65 2 0 0 -0 0.5 -1.5 2.65 0 0 -0 0 -3.8 3.7 0 0 -0 0 -3 2.7 0 0 -0 2.84217e-14 -1.9 1.6 0 0 -0 -2.84217e-14 -8.3 1.9 0 0 -0 0 -4.5 0 0.00427378 0 -0 0 -3.4 0 0.00427228 0 -0 0.25 -2.2 0.4 0 0 -0 -2.84217e-14 -8.3 1 0 0 -0 0 -4.65 0 0 0 -0 0 -3.3 0 0 0 -0 0.5 -2.15 -0.8 0 0 -0 0 -7.75 -0.2 0 0 -0 -2.84217e-14 -3.8 0 0 0 -0 0 -3.4 0 0 0 -0 0.75 -1.75 -1.85 0 0 -0 0 -7.15 -1 0 0 -0 0 -3 0 0 0 -0 0 -2.35 0 0 0 -0 8 0 0 0 0 -0 0 -45 -1 0 0 -0 0 -41 -2 0 0 -0 0 -7.5 12.5 0 0 -0 0 0 4 0 0 -0 -8 0 0 0 0 -0 0 -45 -1 0 0 -0 0 -41 -2 0 0 -0 0 -7.5 12.5 0 0 -0 0 0 4 0 0 -0 
-6.42043 92.9299 -39.1075 -0.369847 0.206641 -29.1925 0 8 3.55271e-15 0.0405809 -0.650142 5.45663 3.55271e-15 8 0 0.190068 0.328169 -11.7664 -3.55271e-15 8 0 0.0868543 0.169402 -5.89859 0 8 -3.55271e-15 0.0863506 0.168532 -5.86746 0 17 -3.55271e-15 -0.283269 -0.0359584 1.88354 0 10.8 0 -0.194299 0.546474 4.39841 5 17 0 -0.452193 1.36603 -0.0561849 6.45 0 0 -0.32289 0.269555 8.11222 6.45 0 3.55271e-15 1.62797 -4.79769 -7.57775 5.32907e-15 -32.4 -2 -0.691204 -4.25369 3.51372 0 -25.65 2 12.6875 -4.28266 -7.9358 -0.5 -1.5 2.65 -10.1511 -13.7831 -1.28532 0 -3.8 3.7 0.11388 23.1205 -0.0158062 0 -3 2.7 0 19.9174 -0 3.55271e-15 -1.9 1.6 -1.59028e-15 3.18055e-15 -0 -3.55271e-15 -8.3 1.9 -0.917573 -0.600543 -3.18073e-15 -1.77636e-15 -4.5 0 -21.9584 3.8763e-15 3.18055e-15 -3.55271e-15 -3.4 0 -17.1512 3.18055e-15 -3.18055e-15 -0.25 -2.2 0.4 -1.59028e-15 3.18055e-15 -0 -3.55271e-15 -8.3 1 -4.7579 -1.35241 0.0437389 0 -4.65 0 -8.66284 3.18055e-15 -6.36111e-15 0 -3.3 1.77636e-15 -7.74698 -2.88238e-15 9.54166e-15 -0.5 -2.15 -0.8 -1.59028e-15 3.18055e-15 -0 -3.55271e-15 -7.75 -0.2 -12.1257 -2.85182 -0.0063507 0 -3.8 1.77636e-15 -0 0 6.36111e-15 0 -3.4 0 3.18055e-15 2.38542e-15 3.18055e-15 -0.75 -1.75 -1.85 -1.59028e-15 3.18055e-15 -0 -3.55271e-15 -7.15 -1 -15.8027 -3.73841 -0.117679 1.77636e-15 -3 5.32907e-15 7.95139e-16 2.38542e-15 -0 0 -2.35 -5.32907e-15 -7.95139e-16 -2.38542e-15 3.18055e-15 -5 17 0 -0.313775 1.27988 11.201 -6.45 0 0 2.9985 -0.355363 -9.24211 -6.45 0 0 -3.7874 -2.83885 4.53255 7.10543e-15 -32.4 -2 2.32908 -4.61448 -8.12097 7.10543e-15 -25.65 2 -17.0245 0.357999 1.06556 0.5 -1.5 2.65 1.09744 -7.73881 2.21262 1.42109e-14 -3.8 3.7 -0.0354484 6.99595 3.20441e-15 0 -3 2.7 7.77183e-16 13.7314 -3.27413e-15 0 -1.9 1.6 7.95139e-16 7.95139e-16 -3.18055e-15 0 -8.3 1.9 10.3121 -2.97521 0.221438 0 -4.5 3.55271e-15 0.00427378 3.97569e-15 -3.18055e-15 7.10543e-15 -3.4 0 0.00427228 -2.5842e-15 6.36111e-15 0.25 -2.2 0.4 7.95139e-16 7.95139e-16 -3.18055e-15 0 -8.3 1 11.6243 -2.50791 0.128868 7.10543e-15 -4.65 -3.55271e-15 2.3629 -3.97569e-16 6.36111e-15 7.10543e-15 -3.3 3.55271e-15 2.28852 0 -3.18055e-15 0.5 -2.15 -0.8 7.95139e-16 7.95139e-16 -3.18055e-15 0 -7.75 -0.2 13.989 -1.11579 -0.137274 0 -3.8 3.55271e-15 0.731279 0 -0 0 -3.4 0 0.724012 1.19271e-15 1.59028e-14 0.75 -1.75 -1.85 7.95139e-16 7.95139e-16 -3.18055e-15 0 -7.15 -1 15.4206 -0.580056 -0.28084 0 -3 0 -8.82781e-32 -7.95139e-16 -6.36111e-15 0 -2.35 0 3.97569e-16 -7.95139e-16 -3.18055e-15 8 -1.42109e-14 3.55271e-15 2.34999 -4.85069 -22.1332 0 -45 -1 -0.00501234 9.72047 0.120087 0 -41 -2 -3.63771 -5.93115 12.953 0 -7.5 12.5 7.58303e-22 -1.51661e-21 3.18055e-15 0 -6.77626e-21 4 0.348341 0.111058 -7.02133 -8 -1.42109e-14 0 -1.81892 1.17326 -17.8455 7.10543e-15 -45 -1 -0.0031473 5.44686 0.613739 7.10543e-15 -41 -2 2.44731 -5.89703 -9.28788 0 -7.5 12.5 -7.58303e-22 0 6.36111e-15 0 0 4 -1.93861 -1.02892 7.27401 
-6.41648 92.9301 -39.103 -0.364943 0.203728 -29.1719 -3.55271e-15 8 0 0.0334547 -0.646457 5.46152 0 8 -7.10543e-15 0.190825 0.326308 -11.7669 -3.55271e-15 8 -3.55271e-15 0.0872808 0.168488 -5.89884 3.55271e-15 8 3.55271e-15 0.086775 0.167624 -5.8677 0 17 0 -0.282799 -0.0334116 1.87284 0 10.8 -3.55271e-15 -0.184289 0.541198 4.37334 5 17 -3.55271e-15 -0.45171 1.35869 -0.0615782 6.45 0 0 -0.32213 0.270299 8.11531 6.45 0 0 1.62318 -4.7946 -7.59443 -3.55271e-15 -32.4 -2 -0.691507 -4.25897 3.50936 0 -25.65 2 12.6828 -4.28997 -7.93754 -0.5 -1.5 2.65 -10.1477 -13.7847 -1.28619 3.55271e-15 -3.8 3.7 0.113884 23.1231 -0.0158203 1.77636e-15 -3 2.7 3.05882e-15 19.9125 -1.01484e-14 3.55271e-15 -1.9 1.6 3.18055e-15 3.18055e-15 -0 0 -8.3 1.9 -0.91539 -0.598633 3.18073e-15 -1.77636e-15 -4.5 0 -21.9587 2.48481e-16 9.54166e-15 0 -3.4 0 -17.1513 1.59028e-15 -0 -0.25 -2.2 0.4 3.18055e-15 3.18055e-15 -0 0 -8.3 1 -4.76175 -1.35301 0.0439077 1.77636e-15 -4.65 1.77636e-15 -8.65867 7.95139e-16 -3.18055e-15 0 -3.3 0 -7.74364 3.08116e-15 -6.36111e-15 -0.5 -2.15 -0.8 3.18055e-15 3.18055e-15 -0 -3.55271e-15 -7.75 -0.2 -12.1408 -2.85695 -0.00635072 0 -3.8 1.77636e-15 1.59028e-15 -3.97569e-15 -3.18055e-15 1.77636e-15 -3.4 3.55271e-15 1.59028e-15 -7.95139e-16 -3.18055e-15 -0.75 -1.75 -1.85 3.18055e-15 3.18055e-15 -0 0 -7.15 -1 -15.8238 -3.74638 -0.118481 -3.55271e-15 -3 -1.77636e-15 1.59028e-15 -7.95139e-16 -3.18055e-15 1.77636e-15 -2.35 -1.77636e-15 1.59028e-15 -3.97569e-15 -3.18055e-15 -5 17 -3.55271e-15 -0.313786 1.27743 11.1898 -6.45 0 -7.10543e-15 2.99653 -0.353936 -9.24317 -6.45 2.84217e-14 3.55271e-15 -3.76657 -2.84721 4.54381 0 -32.4 -2 2.3257 -4.61151 -8.13659 0 -25.65 2 -17.0264 0.350321 1.05882 0.5 -1.5 2.65 1.09831 -7.73579 2.21939 1.42109e-14 -3.8 3.7 -0.0354475 6.99863 -1.28177e-14 0 -3 2.7 3.63711e-17 13.7275 6.54816e-15 0 -1.9 1.6 3.18055e-15 0 -3.18055e-15 -1.42109e-14 -8.3 1.9 10.3184 -2.97383 0.221432 0 -4.5 -3.55271e-15 0.00427378 7.95139e-16 -3.18055e-15 7.10543e-15 -3.4 3.55271e-15 0.00427228 -1.19271e-15 3.18055e-15 0.25 -2.2 0.4 3.18055e-15 0 -3.18055e-15 0 -8.3 1 11.6306 -2.50743 0.128858 7.10543e-15 -4.65 0 2.36108 7.95139e-16 -3.18055e-15 7.10543e-15 -3.3 -3.55271e-15 2.2868 3.18055e-15 -3.18055e-15 0.5 -2.15 -0.8 3.18055e-15 0 -3.18055e-15 -1.42109e-14 -7.75 -0.2 13.995 -1.11632 -0.137352 7.10543e-15 -3.8 3.55271e-15 0.731297 7.95139e-16 3.18055e-15 0 -3.4 -7.10543e-15 0.724033 3.97569e-16 -3.18055e-15 0.75 -1.75 -1.85 3.18055e-15 0 -3.18055e-15 0 -7.15 -1 15.4268 -0.581236 -0.280916 0 -3 0 -8.82781e-32 -7.95139e-16 -6.36111e-15 0 -2.35 3.55271e-15 3.97569e-16 7.95139e-16 3.18055e-15 8 0 -3.55271e-15 2.34166 -4.84977 -22.1383 0 -45 -1 -0.00504751 9.71382 0.121286 3.55271e-15 -41 -2 -3.62144 -5.93697 12.9382 1.77636e-15 -7.5 12.5 -0 -3.10601e-18 -0 0 0 4 0.337467 0.126086 -7.02134 -8 0 3.55271e-15 -1.82665 1.17557 -17.8415 0 -45 -1 -0.00315373 5.44949 0.613241 0 -41 -2 2.44023 -5.92337 -9.31173 -7.10543e-15 -7.5 12.5 -4.65902e-18 -1.55301e-18 -6.36111e-15 0 0 4 -1.93438 -1.00626 7.27425 
-6.41286 92.9302 -39.0992 -0.360631 0.201163 -29.1528 0 8 -3.55271e-15 0.0275283 -0.642551 5.46673 0 8 0 0.190278 0.32419 -11.7667 0 8 0 0.0870823 0.167571 -5.89867 0 8 3.55271e-15 0.0867511 0.166711 -5.86786 0 17 -3.55271e-15 -0.281247 -0.0301506 1.86068 0 10.8 0 -0.174327 0.532945 4.34484 5 17 0 -0.450146 1.35222 -0.0665861 6.45 0 3.55271e-15 -0.32215 0.269854 8.11774 6.45 2.84217e-14 3.55271e-15 1.61729 -4.79414 -7.61116 0 -32.4 -2 -0.690279 -4.26289 3.51007 0 -25.65 2 12.6782 -4.29887 -7.93781 -0.5 -1.5 2.65 -10.1435 -13.7864 -1.28781 -1.77636e-15 -3.8 3.7 0.113885 23.1248 -0.0158205 1.77636e-15 -3 2.7 -8.11704e-17 19.9124 -6.76559e-15 0 -1.9 1.6 -1.59028e-15 0 -0 1.77636e-15 -8.3 1.9 -0.912846 -0.597177 -3.18073e-15 -3.55271e-15 -4.5 -1.77636e-15 -21.9589 1.09332e-15 -0 0 -3.4 0 -17.1517 -3.18055e-15 3.18055e-15 -0.25 -2.2 0.4 -1.59028e-15 0 -0 0 -8.3 1 -4.76594 -1.35334 0.0439667 -3.55271e-15 -4.65 -1.77636e-15 -8.65623 7.95139e-16 -3.18055e-15 -1.77636e-15 -3.3 -1.77636e-15 -7.7419 -2.5842e-15 -0 -0.5 -2.15 -0.8 -1.59028e-15 0 -0 0 -7.75 -0.2 -12.1559 -2.86441 -0.00635077 -1.77636e-15 -3.8 1.77636e-15 -1.59028e-15 1.59028e-15 -6.36111e-15 0 -3.4 0 -0 -3.18055e-15 -0 -0.75 -1.75 -1.85 -1.59028e-15 0 -0 7.10543e-15 -7.15 -1 -15.8451 -3.75679 -0.119587 -1.77636e-15 -3 5.32907e-15 -7.95139e-16 1.59028e-15 -0 0 -2.35 -3.55271e-15 7.95139e-16 1.59028e-15 6.36111e-15 -5 17 0 -0.312715 1.27778 11.1788 -6.45 0 -7.10543e-15 2.99476 -0.355262 -9.24298 -6.45 0 3.55271e-15 -3.74702 -2.85478 4.55709 0 -32.4 -2 2.3211 -4.60737 -8.15455 0 -25.65 2 -17.0254 0.34216 1.05233 0.5 -1.5 2.65 1.09897 -7.73381 2.22574 0 -3.8 3.7 -0.0354475 6.99889 3.20443e-15 0 -3 2.7 -2.36704e-15 13.7243 3.27403e-15 0 -1.9 1.6 3.97569e-15 -7.95139e-16 -0 0 -8.3 1.9 10.3238 -2.97118 0.22135 0 -4.5 3.55271e-15 0.00427378 5.96354e-16 -3.18055e-15 0 -3.4 3.55271e-15 0.00427228 -3.97569e-16 -0 0.25 -2.2 0.4 3.97569e-15 -7.95139e-16 -0 0 -8.3 1 11.6357 -2.50523 0.128923 0 -4.65 0 2.36094 2.38542e-15 -3.18055e-15 0 -3.3 0 2.28653 7.95139e-16 -3.18055e-15 0.5 -2.15 -0.8 3.97569e-15 -7.95139e-16 -0 0 -7.75 -0.2 13.9993 -1.11476 -0.137319 7.10543e-15 -3.8 0 0.730597 0 9.54166e-15 7.10543e-15 -3.4 -3.55271e-15 0.723712 2.38542e-15 6.36111e-15 0.75 -1.75 -1.85 3.97569e-15 -7.95139e-16 -0 0 -7.15 -1 15.4308 -0.579782 -0.280921 0 -3 -3.55271e-15 -3.97569e-16 -7.95139e-16 1.27222e-14 -7.10543e-15 -2.35 0 -7.95139e-16 -7.95139e-16 3.18055e-15 8 1.42109e-14 -3.55271e-15 2.33456 -4.8497 -22.1388 0 -45 -1 -0.00504791 9.70934 0.121343 0 -41 -2 -3.61945 -5.93166 12.9224 -1.77636e-15 -7.5 12.5 -3.10601e-18 0 -3.18055e-15 0 1.73472e-18 4 0.337099 0.126133 -7.02137 -8 -1.42109e-14 -3.55271e-15 -1.83309 1.17773 -17.8426 0 -45 -1 -0.00310773 5.45174 0.612503 0 -41 -2 2.44177 -5.9272 -9.33156 0 -7.5 12.5 3.10601e-18 -5.43552e-18 3.18055e-15 0 -1.73472e-18 4 -1.93425 -1.00651 7.27425 
